<svg width="900" height="600" xmlns="http://www.w3.org/2000/svg" xmlns:xlink="http://www.w3.org/1999/xlink"
        viewBox="0 0 500 500">
        <polygon points="110,225 60,250 70,210" fill="orange" />
        <polygon points="180,200 190,250 130,230" fill="orange" />
        <ellipse cx="130" cy="420" rx="70" ry="25" fill="lightgrey" />
        <ellipse cx="400" cy="420" rx="70" ry="25" fill="lightgrey" />
        <circle cx="130" cy="320" r="100" fill="orange" />
        <circle cx="400" cy="320" r="100" fill="yellow" />
        <ellipse class="fox-tail" cx="30" cy="410" rx="70" ry="25" fill="orange" transform="rotate(20)"
          transform-origin="center" />
        <circle cx="355" cy="290" r="40" fill="white" />
        <circle cx="405" cy="290" r="40" fill="white" />
        <circle cx="120" cy="290" r="40" fill="white" />
        <circle cx="170" cy="290" r="40" fill="white" />
        <circle cx="340" cy="290" r="7" fill="black" />
        <circle cx="395" cy="290" r="7" fill="black" />
        <circle cx="135" cy="290" r="7" fill="black" />
        <circle cx="185" cy="290" r="7" fill="black" />
        <circle cx="145" cy="330" r="13" fill="black" />
        <ellipse cx="130" cy="370" rx="15" ry="7" fill="red" />
        <ellipse cx="380" cy="370" rx="7" ry="15" fill="red" />
        <polygon points="-52,293 -63,323 -78,303" fill="white" />
        <polygon points="99,225 65,245 72,215" fill="black" />
        <polygon points="178,205 183,235 150,223" fill="black" />
      </svg>